<?xml version="1.0" encoding="utf-8"?>
<!-- Generator: Adobe Illustrator 19.0.0, SVG Export Plug-In . SVG Version: 6.00 Build 0)  -->
<svg version="1.1" id="Layer_1" xmlns="http://www.w3.org/2000/svg" xmlns:xlink="http://www.w3.org/1999/xlink" x="0px" y="0px"
	 viewBox="0 0 100 100" enable-background="new 0 0 100 100" xml:space="preserve">
<path id="XMLID_15_" fill="#FBE8A6" d="M49.4,60.4c-3.3-11.3-8.3-18.2-12.8-22.6C23.9,25,2.7,19.3,2.5,19.3l0,0
	c2.4,8.3,7.6,20.3,19.3,29.5C31.2,56.1,41.6,59.1,49.4,60.4z"/>
<path id="XMLID_13_" fill="#439E47" d="M48.2,60.5c2.4-11.9,1.2-20.4-0.6-26.2C42.4,17.5,26.5,4.1,26.4,4l0,0
	c-1.7,8.8-2.8,22.1,3.1,35.2C34.3,49.6,42,56.3,48.2,60.5z"/>
<path id="XMLID_11_" fill="#F4976C" d="M61.4,41.9c-11.6,0-21.1,9.4-21.1,21.1S49.8,84,61.4,84s21.1-9.4,21.1-21.1
	S73,41.9,61.4,41.9z M69.8,69.2L68,71l-6.5-6.5L55,71l-1.8-1.8l6.5-6.5l-6.5-6.5l1.8-1.8l6.5,6.5l6.5-6.5l1.8,1.8l-6.5,6.5
	L69.8,69.2z"/>
</svg>
