<?xml version="1.0" encoding="utf-8"?>
<!-- Generator: Adobe Illustrator 19.0.0, SVG Export Plug-In . SVG Version: 6.00 Build 0)  -->
<svg version="1.1" id="Layer_1" xmlns="http://www.w3.org/2000/svg" xmlns:xlink="http://www.w3.org/1999/xlink" x="0px" y="0px"
	 viewBox="0 0 100 100" enable-background="new 0 0 100 100" xml:space="preserve">
<path id="XMLID_15_" fill="#FBE8A6" d="M49.4,60.4c-3.3-11.3-8.3-18.2-12.8-22.6C23.9,25,2.7,19.3,2.5,19.3l0,0
	c2.4,8.3,7.6,20.3,19.3,29.5C31.2,56.1,41.6,59.1,49.4,60.4z"/>
<path id="XMLID_13_" fill="#439E47" d="M48.2,60.5c2.4-11.9,1.2-20.4-0.6-26.2C42.4,17.5,26.5,4.1,26.4,4l0,0
	c-1.7,8.8-2.8,22.1,3.1,35.2C34.3,49.6,42,56.3,48.2,60.5z"/>
<path id="XMLID_11_" fill="#F4976C" d="M-51.6,44.7c-11.6,0-21.1,9.4-21.1,21.1s9.4,21.1,21.1,21.1s21.1-9.4,21.1-21.1
	S-40,44.7-51.6,44.7z M-43.2,72l-1.8,1.8l-6.5-6.5l-6.5,6.5l-1.8-1.8l6.5-6.5l-6.5-6.5l1.8-1.8l6.5,6.5l6.5-6.5l1.8,1.8l-6.5,6.5
	L-43.2,72z"/>
<g id="XMLID_2_">
	<path id="XMLID_3_" fill="#F4976C" d="M60.3,63.8c-0.1,0.2-0.2,0.6-0.4,1.1c-0.1,0.3-0.2,0.7-0.4,1.2c0.1,0,0.4,0,0.8-0.1
		c0.3,0,0.5-0.1,0.8-0.2c-0.1-0.2-0.2-0.5-0.4-1C60.7,64.6,60.5,64.2,60.3,63.8z"/>
	<path id="XMLID_19_" fill="#F4976C" d="M61.4,42c-11.6,0-21.1,9.4-21.1,20.9c0,11.6,9.4,20.9,21.1,20.9s21.1-9.4,21.1-20.9
		C82.5,51.4,73,42,61.4,42z M56.9,63c-0.1,1.4-0.1,3.1-0.1,4.9c-0.5-0.4-1.3-1-2.3-1.8c-0.5-0.3-1.1-0.7-2-1.3L52.4,68h-1.9
		c0-1-0.1-2.3-0.2-4.5C50.2,61.7,50.1,60,50,59h2.9l2.2,2c0-0.5,0-0.8,0-1.1c0-0.2,0-0.9-0.1-0.9h2.2C57.1,60,57,61.1,56.9,63z
		 M61.6,68l-0.2-0.9c-0.1,0-0.3,0.1-0.7,0.3c-0.2,0.1-0.5,0.3-0.8,0.6l-0.3-0.7c-0.1-0.1-0.2-0.2-0.3-0.5L59,68h-1.7
		c0.3-1,0.6-2.6,1.2-4.8c0.3-1.5,0.6-3.2,0.8-4.2h3.5c0.1,0,0.4,2,0.9,4.3c0.3,1.2,0.6,2.7,1.1,4.7H61.6z M71,63.7
		c-0.3,1-0.8,2.3-1.3,4.3h-2c-0.3-1-0.7-2.3-1.3-4.4C66,62.5,65.5,61,64.8,59H69c0,0,0.1,0.9,0.3,1.7c0.1,0.4,0.3,1,0.5,1.8
		c0.1-0.4,0.3-0.9,0.5-1.8c0.1-0.5,0.2-0.7,0.3-1.7h2C72.3,60,71.7,61.5,71,63.7z"/>
</g>
</svg>
